<?xml version="1.0" encoding="UTF-8"?>
<svg id="Layer_2" data-name="Layer 2" xmlns="http://www.w3.org/2000/svg" width="622.12" height="534.34" viewBox="0 0 622.12 534.34">
  <g id="face">
    <path id="outline" d="M16.01,322.29c-24.91-85.99-7.72-187.68,53.27-253.92,26.34-28.61,59.78-48.79,97.6-58.21,24.9-6.2,50.55-5.73,75.16,1.29,14.96,4.27,27.65,12.02,40.11,20.95l17.01,12.2c7.9,4.45,17.45,4.55,24.6-.78l12.37-9.22c16.49-13.6,35.22-23.05,56.38-27,27.42-5.13,54.55-2.58,80.75,6.88,75.23,27.15,122.08,93.32,137.9,170.08,20.12,97.68-11.4,198.69-84,267.09-33.25,31.33-74.49,53.31-118.98,64.94-40.13,10.49-80.69,14.46-122.12,12.09-27.91-1.59-54.4-6.68-81.13-14.37-54.51-15.68-102.55-47.67-137.48-92.43-23.08-29.58-40.82-62.91-51.44-99.59Z" fill="#fff" stroke="#231f20" stroke-miterlimit="10" stroke-width="10"/>
    <g id="eyebrows">
      <path id="r_eyebrow" d="M503.22,95.78c-23.13-22.05-56.75-31.47-88.06-24.83-15.89,3.37-25.35,18.55-21.52,33.68,3.14,12.41,14.06,20.07,26.77,18.49,19.25-2.4,37.5,1.91,54.42,12.16,12.55,7.61,27.56,4.06,34.27-9.06,5.09-9.96,2.71-22.27-5.87-30.45Z" fill="#66449b" stroke="#231f20" stroke-miterlimit="10" stroke-width="10"/>
      <path id="l_eyebrow" d="M207.91,70.75c-30.23-5.07-61.58,3.38-84.51,23.78-6.93,6.16-10.89,14.64-10.1,23.48.77,8.62,5.87,15.59,12.35,18.92,7.7,3.96,16.2,3.4,23.43-1.03,17.46-10.69,36.3-14.76,57.26-12.26,6.83.81,13.43-2.44,17.74-6.65,7.8-7.6,9.81-18.85,5.81-29.26-3.36-8.74-11.53-15.23-21.99-16.99Z" fill="#66449b" stroke="#231f20" stroke-miterlimit="10" stroke-width="10"/>
    </g>
    <g id="eye_socket">
      <path d="M128.92,180.45c-8.72-5.93-20.25-7.52-29.78-2.32-11.36,6.19-15.85,19.28-12.95,31.64,2.21,9.47,9.58,16.49,8.52,22.46-1.77,9.98-3.41,19.26-3.4,29.44l.11,84.29c0,4.67,1.41,9.25,2.84,13.87,5.26,13.1,18.11,19.47,31.17,16.49,12.67-2.89,20.91-14.9,20.35-28.76,33.15,15.23,66.84,6.17,86.07-24.76,24.21-38.76,20.04-104.79-8.42-139.78-24.42-30.02-66.21-28.3-94.5-2.57Z" fill="#e54f77" stroke="#231f20" stroke-miterlimit="10" stroke-width="10"/>
      <path d="M523.22,177.65c-9.55-5.17-20.5-3.27-29.5,2.38-19.15-16.65-43.43-24.68-67.45-16.63-47.83,16.02-59.91,90.11-46.44,135.19,7.87,26.32,23.42,47.62,50.84,54.36,15.42,3.79,31.15,1.34,45.87-5.56.06,15.21,8.46,27.48,23.14,29.35,9.3,1.18,17.85-2.18,23.83-9.43,5.12-6.21,7.29-13.91,7.32-22.6l.21-72.73c.04-13.21-.57-25.65-3.28-38.47-1.75-8.27,6.88-14.11,8.74-27.87,1.54-11.46-3.2-22.55-13.28-28.01Z" fill="#e54f77" stroke="#231f20" stroke-miterlimit="10" stroke-width="10"/>
    </g>
    <path id="nose" d="M347.4,340.64l.18-145.05c.03-20.75-19.24-35.8-39.23-33.96-17.5,1.61-33.2,15.43-33.2,33.88l.04,144.99c0,19.93,17.66,34.46,36.24,34.39,18.13-.06,35.94-14.29,35.97-34.25Z" fill="#66449b" stroke="#231f20" stroke-miterlimit="10" stroke-width="10"/>
    <path id="mouth" d="M436.47,421.23c4.66-7.65,6.92-15.83,6.48-24.38-.77-14.74-10.95-26.85-24.17-30.38-13.93-3.71-29.35,1.81-36.75,14.34-16.5,27.96-43.18,39.46-75.42,38.28-27.37-1-51.83-12.91-65.51-36.76-6.23-10.86-17.43-17.31-29.56-16.9-11.57.39-22.4,6.67-28.31,17.5s-5.25,24.01.7,35.05c7.91,14.66,18.88,26.49,31.52,37.32,22.58,19.35,50.03,30.27,79.75,32.38,39.88,2.83,77.07-4.69,108.5-29.91,12.97-10.41,23.94-22.09,32.74-36.54Z" fill="#66449b" stroke="#231f20" stroke-miterlimit="10" stroke-width="10"/>
    <g id="eyes">
      <g id="eye_black">
        <path d="M186.87,207.43c-12.7-4.22-25.9-1.51-36.89,6.13-29.4,20.47-33.16,70.37-5.4,96.3,12.02,11.23,28.83,15.08,44.17,9.6,13.13-4.69,22.5-14.49,28.27-27.12,14.42-31.56,2.28-74.14-30.16-84.91ZM154.38,307.85c-10.12-7-16.47-17.53-19.45-29.55-4.27-18.49-.25-37.76,12.25-52.14,12.59-14.49,33.76-17.53,49.33-5.03-12.08-3.45-24.02-2-34.18,5.73-21.46,16.34-24.3,48.9-6.31,68.9,10.66,11.86,25.87,15.72,40.6,10.9-12.59,10.16-29.38,10.08-42.24,1.19ZM190.62,250.69c-5.03,0-9.11-4.08-9.11-9.11s4.08-9.11,9.11-9.11,9.11,4.08,9.11,9.11-4.08,9.11-9.11,9.11Z"/>
        <path d="M482.14,222.33c-8.93-10.78-21.94-17.5-35.98-16.9-12.26.52-23.65,6.55-31.67,16.04-19.89,23.52-20.4,59.27-1.42,83.27,15.23,19.25,41.83,22.9,61.28,7.87,27.5-21.25,29.35-64.25,7.8-90.28ZM432.42,232.27c5.55-.67,9.95,3.78,10.07,9.02.11,4.64-3.66,9.75-9.33,9.42-5.01-.3-8.16-4.53-8.52-8.56-.4-4.61,2.74-9.27,7.77-9.89ZM473.9,302.89c-13.14,13.29-32.57,15.5-48.01,3.84,15.82,4.9,31.27.23,41.81-12.64,15.9-19.41,13.66-49.16-5.33-65.67-10.35-9-22.95-11.29-36.33-7.33,13.67-11.49,33.08-10.12,46.03,1.8,21.3,19.59,23.61,57.98,1.83,80.01Z"/>
      </g>
      <g id="eye_white">
        <path d="M156.02,295.77c-17.99-20.01-15.15-52.56,6.31-68.9,10.16-7.73,22.1-9.19,34.18-5.73-15.56-12.49-36.73-9.45-49.33,5.03-12.51,14.38-16.52,33.65-12.25,52.14,2.98,12.02,9.33,22.55,19.45,29.55,12.86,8.9,29.65,8.97,42.24-1.19-14.74,4.82-29.94.96-40.6-10.9Z" fill="#fff"/>
        <circle cx="190.62" cy="241.58" r="9.11" fill="#fff"/>
        <path d="M472.07,222.89c-12.95-11.92-32.36-13.29-46.03-1.8,13.38-3.96,25.98-1.66,36.33,7.33,19,16.51,21.23,46.27,5.33,65.67-10.54,12.86-25.99,17.54-41.81,12.64,15.43,11.65,34.87,9.45,48.01-3.84,21.78-22.03,19.47-60.41-1.83-80.01Z" fill="#fff"/>
        <path d="M433.16,250.71c5.67.33,9.44-4.78,9.33-9.42-.12-5.25-4.52-9.7-10.07-9.02-5.03.61-8.18,5.28-7.77,9.89.35,4.02,3.5,8.26,8.52,8.56Z" fill="#fff"/>
      </g>
    </g>
  </g>
</svg>